<?xml version="1.0" standalone="no"?>
<!DOCTYPE svg PUBLIC "-//W3C//DTD SVG 20010904//EN"
 "http://www.w3.org/TR/2001/REC-SVG-20010904/DTD/svg10.dtd">
<svg version="1.0" xmlns="http://www.w3.org/2000/svg"
 width="800.000000pt" height="800.000000pt" viewBox="0 0 800.000000 800.000000"
 preserveAspectRatio="xMidYMid meet">

<g transform="translate(0.000000,800.000000) scale(0.100000,-0.100000)"
fill="#000000" stroke="none">
<path d="M0 7247 l0 -753 517 -369 c284 -204 575 -412 647 -463 72 -51 139
-101 149 -111 16 -16 -16 -34 -648 -360 l-665 -343 0 -2424 0 -2424 4000 0
4000 0 0 2843 0 2842 -221 170 c-121 94 -278 215 -348 270 -206 162 -319 249
-428 332 -56 43 -131 101 -166 128 -35 28 -133 104 -218 170 -160 124 -286
223 -353 278 -22 18 -56 43 -76 57 -21 14 -59 44 -86 66 -47 40 -88 72 -239
188 -267 205 -596 466 -596 472 0 4 62 32 138 61 76 30 176 69 223 88 l85 34
-2857 1 -2858 0 0 -753z m2645 -1489 l310 -308 -537 0 -538 0 0 532 0 532 228
-224 c125 -124 367 -363 537 -532z m1255 192 l0 -500 -415 0 -415 0 0 500 0
500 415 0 415 0 0 -500z m0 -1230 l0 -580 -292 0 -293 0 -318 438 c-174 240
-328 451 -342 467 l-24 30 -1 -467 0 -468 -375 0 -375 0 0 580 0 580 1010 0
1010 0 0 -580z m1520 -503 c134 -35 244 -79 341 -138 46 -27 88 -55 94 -60 7
-7 2 -24 -14 -52 -22 -39 -401 -669 -406 -675 -1 -1 -29 14 -61 33 -87 53
-150 68 -258 63 -71 -3 -103 -10 -148 -30 -73 -34 -141 -104 -166 -171 l-20
-52 -436 -3 c-411 -2 -436 -1 -436 15 0 41 31 214 50 283 27 94 95 240 156
331 159 239 438 410 767 470 150 27 404 21 537 -14z m-634 -1254 c31 -100 96
-176 182 -216 40 -19 65 -22 167 -22 135 0 195 16 280 75 25 18 48 30 49 28
14 -16 396 -713 396 -722 0 -18 -165 -117 -256 -153 -46 -19 -135 -46 -197
-60 -100 -24 -133 -27 -302 -27 -150 -1 -208 3 -274 18 -249 54 -436 151 -591
306 -185 185 -295 430 -325 723 l-7 67 436 0 c407 0 437 -1 442 -17z"/>
<path d="M6022 7802 c145 -109 355 -269 468 -356 113 -86 223 -170 245 -187
22 -17 174 -132 337 -257 164 -125 337 -256 384 -292 48 -36 101 -78 118 -93
17 -15 51 -42 76 -59 25 -17 95 -71 157 -119 61 -48 130 -99 152 -114 l41 -25
0 267 -1 268 -125 95 c-69 52 -145 109 -169 125 -23 17 -115 84 -205 150 -210
155 -550 406 -668 492 -51 38 -98 73 -105 78 -7 6 -61 47 -122 92 -60 45 -125
94 -144 108 l-34 25 -334 0 -335 0 264 -198z"/>
<path d="M0 6288 l0 -75 442 -309 c243 -170 450 -316 460 -324 17 -14 -18 -33
-442 -240 l-460 -225 0 -68 0 -68 413 210 c226 115 481 245 565 289 l153 79
-557 399 c-307 219 -561 401 -566 402 -4 2 -8 -30 -8 -70z"/>
<path d="M0 5650 l0 -419 113 53 c376 178 603 288 609 294 3 4 -69 57 -160
119 -92 61 -254 170 -360 242 -107 72 -195 131 -198 131 -2 0 -4 -189 -4 -420z"/>
</g>
</svg>
